<svg xmlns="http://www.w3.org/2000/svg" viewBox="0 0 128 128"><path fill="#00add8" d="M83.6 35.7c18.8 0 34.1 12.5 34.1 27.8s-15.3 27.8-34.1 27.8H50.1c-18.8 0-34.1-12.5-34.1-27.8s15.3-27.8 34.1-27.8z"/><path fill="#fff" d="M50.7 52.2c-7.1 0-12.9 5.1-12.9 11.3s5.8 11.3 12.9 11.3c3.5 0 6.7-1.2 9-3.3l-5.6-4.8a5.4 5.4 0 0 1-3.4 1.1c-3 0-5.5-1.9-5.5-4.3s2.5-4.3 5.5-4.3c1.3 0 2.5.3 3.4 1.1l5.6-4.8c-2.3-2.1-5.5-3.3-9-3.3zm34.5 0c-7.1 0-12.9 5.1-12.9 11.3s5.8 11.3 12.9 11.3 12.9-5.1 12.9-11.3-5.8-11.3-12.9-11.3zm0 7c3 0 5.5 1.9 5.5 4.3s-2.5 4.3-5.5 4.3-5.5-1.9-5.5-4.3 2.5-4.3 5.5-4.3z"/><path fill="#5dc9e2" d="M5 46.5h32v6H5zm8 13h24v6H13zm-8 13h32v6H5z"/></svg>
