<svg xmlns="http://www.w3.org/2000/svg" viewBox="0 0 128 128"><path fill="#f7df1e" d="M1.5 1.5h125v125H1.5z"/><path fill="#000" d="M86.7 99.1c2.5 4.1 5.8 7.1 11.6 7.1 4.9 0 8-2.4 8-5.8 0-4-3.2-5.5-8.7-7.9l-2.9-1.2c-8.6-3.7-14.3-8.3-14.3-18 0-9 6.8-15.8 17.5-15.8 7.6 0 13.1 2.6 17 9.6l-9.3 6c-2-3.7-4.2-5.1-7.7-5.1s-5.7 2.2-5.7 5.1c0 3.6 2.2 5 7.3 7.2l2.9 1.2c10.1 4.3 15.8 8.8 15.8 18.7 0 10.7-8.4 16.6-19.8 16.6-11.1 0-18.3-5.3-21.8-12.2zm-42.2 1c1.9 3.4 3.6 6.3 7.7 6.3 3.9 0 6.4-1.5 6.4-7.5V58.2h12v40.9c0 12.4-7.3 18.1-17.9 18.1-9.6 0-15.2-5-18-11z"/></svg>
