<svg xmlns="http://www.w3.org/2000/svg" viewBox="0 0 128 128"><path fill="#3776ab" d="M63.7 1.5c-31.7 0-29.7 13.8-29.7 13.8v14.3h30.2v4.3H22.1S1.9 31.6 1.9 63.5c0 31.8 17.6 30.7 17.6 30.7h10.5V79.4s-.6-17.6 17.3-17.6h30c16.8 0 15.8-16.2 15.8-16.2V18S95.5 1.5 63.7 1.5zm-16.6 9.2a5.4 5.4 0 1 1 0 10.8 5.4 5.4 0 0 1 0-10.8z"/><path fill="#ffd43b" d="M64.3 126.5c31.7 0 29.7-13.8 29.7-13.8V98.4H63.8v-4.3h42.1s20.2 2.3 20.2-29.6c0-31.8-17.6-30.7-17.6-30.7H98v14.8s.6 17.6-17.3 17.6h-30C33.9 66.2 34.9 82.4 34.9 82.4V110s-2.4 16.5 29.4 16.5zm16.6-9.2a5.4 5.4 0 1 1 0-10.8 5.4 5.4 0 0 1 0 10.8z"/></svg>
