<svg xmlns="http://www.w3.org/2000/svg" viewBox="0 0 128 128"><path fill="#dea584" d="M64 7.5 75.1 18l14.9-3.4 6.1 14 14.8 4-3.5 14.9L118 58.6 107.5 69.7l3.4 14.9-14 6.1-4 14.8-14.9-3.5L66.9 112.5 55.8 102l-14.9 3.4-6.1-14-14.8-4 3.5-14.9L13 61.4l10.5-11.1-3.4-14.9 14-6.1 4-14.8 14.9 3.5z"/><circle cx="64" cy="64" r="39" fill="#2b2118"/><path fill="#fff" d="M39 42h32.5c12.1 0 19.7 6.1 19.7 16.1 0 7.1-3.6 11.9-10.2 14.1l12.2 13.8H79.7L68.9 73.5H52.1V86H39zm13.1 10.5v10.8h18.2c4.8 0 7.5-1.9 7.5-5.5s-2.7-5.3-7.5-5.3z"/><circle cx="35" cy="64" r="5" fill="#fff"/><circle cx="93" cy="64" r="5" fill="#fff"/></svg>
